<?xml version="1.0" encoding="UTF-8" standalone="no"?>
<!-- Created with Inkscape (http://www.inkscape.org/) -->

<svg
   xmlns:dc="http://purl.org/dc/elements/1.1/"
   xmlns:cc="http://creativecommons.org/ns#"
   xmlns:rdf="http://www.w3.org/1999/02/22-rdf-syntax-ns#"
   xmlns:svg="http://www.w3.org/2000/svg"
   xmlns="http://www.w3.org/2000/svg"
   xmlns:xlink="http://www.w3.org/1999/xlink"
   xmlns:sodipodi="http://sodipodi.sourceforge.net/DTD/sodipodi-0.dtd"
   xmlns:inkscape="http://www.inkscape.org/namespaces/inkscape"
   id="svg3599"
   version="1.1"
   inkscape:version="0.48.2 r9819"
   width="1052"
   height="708"
   sodipodi:docname="iowa-district-map.jpg">
  <metadata
     id="metadata3605">
    <rdf:RDF>
      <cc:Work
         rdf:about="">
        <dc:format>image/svg+xml</dc:format>
        <dc:type
           rdf:resource="http://purl.org/dc/dcmitype/StillImage" />
        <dc:title></dc:title>
      </cc:Work>
    </rdf:RDF>
  </metadata>
  <defs
     id="defs3603" />
  <sodipodi:namedview
     pagecolor="#ffffff"
     bordercolor="#666666"
     borderopacity="1"
     objecttolerance="10"
     gridtolerance="10"
     guidetolerance="10"
     inkscape:pageopacity="0"
     inkscape:pageshadow="2"
     inkscape:window-width="1299"
     inkscape:window-height="961"
     id="namedview3601"
     showgrid="false"
     inkscape:zoom="0.79943503"
     inkscape:cx="526"
     inkscape:cy="354"
     inkscape:window-x="12"
     inkscape:window-y="0"
     inkscape:window-maximized="0"
     inkscape:current-layer="svg3599" />
  <image
     width="1052"
     height="708"
     xlink:href="file:///Users/tony/Pictures/iowa-district-map.jpg"
     id="district-2"
     x="0"
     y="0"
     inkscape:label="#district2" />
  <path
     style="fill:none;stroke:#000000;stroke-width:1px;stroke-linecap:butt;stroke-linejoin:miter;stroke-opacity:1"
     d="m 27.519435,17.512367 15.0106,98.819793 -25.017668,63.79505 92.565373,258.93286 210.14841,-2.50177 0,-21.26501 -6.25442,0 1.25088,-53.78799 235.16608,-2.50177 -1.25088,-71.30035 73.80212,0 0,-18.76325 37.5265,-1.25088 -1.25088,-33.77386 -3.75265,0 1.25088,-92.56537 73.80212,1.25089 0,-63.795056 -147.60424,-2.501767 -2.50177,-10.007067 -72.55123,0 0,-51.286219 z"
     id="path3609"
     inkscape:connector-curvature="0" />
  <path
     style="fill:none;stroke:#000000;stroke-width:1px;stroke-linecap:butt;stroke-linejoin:miter;stroke-opacity:1"
     d="m 509.10954,17.512367 2.50177,50.035336 71.30035,1.250884 0,6.254417 146.35336,0 3.75265,65.045936 -77.55477,3.75265 7.5053,126.33922 -37.5265,5.00354 0,17.51236 -72.55124,0 -2.50177,66.29682 73.80212,2.50177 2.50177,71.30035 137.59717,1.25089 2.50177,-73.80212 72.55124,2.50176 0,-25.01766 71.30035,2.50176 1.25088,-22.5159 112.57951,5.00354 5.0035,-13.75972 L 934.40989,196.38869 888.12721,177.62544 870.61484,98.819788 888.12721,68.798587 856.85512,15.010601 z"
     id="path3611"
     inkscape:connector-curvature="0" />
  <path
     style="fill:none;stroke:#000000;stroke-width:1px;stroke-linecap:butt;stroke-linejoin:miter;stroke-opacity:1"
     d="m 116.33216,436.5583 205.14487,0 -7.5053,-75.053 218.9046,0 1.25088,145.10247 -106.32509,3.75265 0,117.58304 -272.69258,-1.25088 -21.26502,-32.52297 12.50884,-25.01767 z"
     id="path3613"
     inkscape:connector-curvature="0" />
  <path
     style="fill:none;stroke:#000000;stroke-width:1px;stroke-linecap:butt;stroke-linejoin:miter;stroke-opacity:1"
     d="m 530.37456,360.25442 5.00353,147.60424 -110.07774,2.50176 3.75265,120.08481 355.25089,-7.5053 45.0318,48.78445 12.50883,-3.75265 -6.25441,-33.77385 8.75618,-13.75972 36.27562,-12.50883 6.25442,-33.77385 21.26501,-18.76325 -2.50176,-41.27916 -23.76679,-25.01766 11.25795,-37.52651 108.82686,-28.77031 10.0071,-42.53004 15.0106,-5.00353 2.5017,-51.28622 -115.08124,5.00353 -1.25088,16.26149 -72.55124,1.25088 1.25088,16.26148 -73.80212,0 0,70.04947 -143.85159,1.25089 -2.50176,-72.55124 z"
     id="path3615"
     inkscape:connector-curvature="0" />
</svg>
